<?xml version="1.0" encoding="UTF-8"?>
<svg id="Layer_2" data-name="Layer 2" xmlns="http://www.w3.org/2000/svg" viewBox="0 0 655.18 1041.93">
  <defs>
    <style>
      .cls-1 {
        fill: #f1e4e8;
      }

      .cls-1, .cls-2, .cls-3, .cls-4, .cls-5, .cls-6, .cls-7, .cls-8 {
        stroke-width: 0px;
      }

      .cls-9 {
        stroke: #c97064;
        stroke-width: 6px;
      }

      .cls-9, .cls-10, .cls-11 {
        stroke-miterlimit: 10;
      }

      .cls-9, .cls-11 {
        fill: #ffe1aa;
      }

      .cls-2 {
        fill: #6ca04c;
      }

      .cls-3 {
        fill: #e0dfff;
      }

      .cls-4 {
        fill: #c97064;
      }

      .cls-5 {
        fill: #b8aaff;
      }

      .cls-6, .cls-12 {
        fill: #54577c;
      }

      .cls-7 {
        fill: #f5e1aa;
      }

      .cls-10 {
        fill: none;
        stroke: #68a357;
      }

      .cls-10, .cls-11 {
        stroke-width: 4px;
      }

      .cls-11 {
        stroke: #ffe1aa;
      }

      .cls-8 {
        fill: #e2dcde;
      }

      .cls-12 {
        font-family: MVBoli, 'MV Boli';
        font-size: 44.18px;
      }
    </style>
  </defs>
  <rect class="cls-1" width="514.59" height="988.49" rx="64.83" ry="64.83"/>
  <rect class="cls-1" x="408.78" y="883.88" width="246.41" height="99.89" rx="37.02" ry="37.02"/>
  <path class="cls-1" d="m643.39,896.05l-66.49-.18-66.49-.18c.53-20.4,1.06-40.81,1.59-61.21-1.33-7.33-2.67-14.67-4-22,45.13,27.86,90.26,55.71,135.39,83.57Z"/>
  <g>
    <circle class="cls-6" cx="98.91" cy="988.65" r="48.84"/>
    <circle class="cls-5" cx="99" cy="988.49" r="20"/>
    <path class="cls-3" d="m72,964.49c-9.93,6.7-12.72,15.71-14.07,15.07-1.49-.71-.33-12.94,8.02-19.52,9.53-7.51,15.47-1.91,6.04,4.44Z"/>
  </g>
  <g>
    <circle class="cls-6" cx="495.43" cy="993.1" r="48.84"/>
    <circle class="cls-5" cx="495.53" cy="992.93" r="20"/>
    <path class="cls-3" d="m468.53,968.93c-9.93,6.7-12.72,15.71-14.07,15.07-1.49-.71-.33-12.94,8.02-19.52,9.53-7.51,15.47-1.91,6.04,4.44Z"/>
  </g>
  <rect class="cls-6" x="382" y="736.49" width="121" height="119" rx="14.67" ry="14.67"/>
  <circle class="cls-6" cx="204" cy="828.49" r="94"/>
  <text class="cls-12" transform="translate(142.22 68.95)"><tspan x="0" y="0">Pizza Menu</tspan></text>
  <rect class="cls-6" x="290" y="119.89" width="203" height="199.64" rx="14.67" ry="14.67"/>
  <rect class="cls-6" x="33.8" y="119.54" width="203" height="199.64" rx="14.67" ry="14.67"/>
  <rect class="cls-6" x="287.9" y="408.02" width="203" height="199.64" rx="14.67" ry="14.67"/>
  <rect class="cls-6" x="33.71" y="404.67" width="203" height="199.64" rx="14.67" ry="14.67"/>
  <g>
    <path class="cls-11" d="m277.98,825.84l-135.18,40.51c-3.1.93-5.44-2.83-3.24-5.2,31.15-33.62,62.3-67.24,93.44-100.86,1.38-1.49,3.78-1.32,4.94.35l20.98,30.34,20.75,30.01c1.23,1.77.37,4.23-1.7,4.85Z"/>
    <ellipse class="cls-4" cx="211.6" cy="833.1" rx="8.8" ry="7.29" transform="translate(-581.37 501.39) rotate(-53.05)"/>
    <path class="cls-4" d="m174.85,825.24c-2.47-2.82,9.87-13.6,12.34-10.78s1.7,7.53-1.71,10.5-8.17,3.1-10.64.28Z"/>
    <ellipse class="cls-4" cx="217.42" cy="796" rx="7.29" ry="8.8" transform="translate(-276.1 134.69) rotate(-21.46)"/>
    <path class="cls-4" d="m156.25,848.69c2.76-2.93,7.87-2.6,11.4.74,2.34,2.21,3.41,5.19,3.05,7.8-.18,1.33-9.53,6.14-13.06,2.81s-4.16-8.41-1.4-11.34Z"/>
    <ellipse class="cls-4" cx="243.43" cy="818.66" rx="8.8" ry="7.29" transform="translate(-610.48 801.54) rotate(-72.29)"/>
  </g>
  <g>
    <circle class="cls-7" cx="387.04" cy="514.67" r="82.35"/>
    <circle class="cls-11" cx="389.65" cy="507.65" r="82.35"/>
    <ellipse class="cls-4" cx="389.95" cy="507.79" rx="77.24" ry="75.28"/>
    <line class="cls-9" x1="366.21" y1="452.95" x2="371.02" y2="457.16"/>
    <path class="cls-11" d="m461.05,536.78c-.43.74-.97,1.37-.97,1.37-1.31,1.42-2.99,1.73-7.99,6.77-6.98,7.04-7.04,9.78-10.58,13.02-1.54,1.41-2.99,2.07-3.95,2.57-9.71,5-10.84,6.97-25.08,13.86-7.38,3.57-11.11,5.35-13.22,5.41-5.99.16-8.5-2.87-17.79-5.13-6.14-1.5-8.37-.99-13.07-1.69-11.93-1.78-20.43-8.45-26.24-13.01-6.24-4.89-20.12-15.78-24.19-33.82-.7-3.12-.02-12.04,1.35-29.89.98-12.78,1.96-19.43,5.99-26.73,1.38-2.5,2.61-8.23,8-10.47,9.46-3.94,18.93-7.88,28.39-11.83,6.08-2.53,12.16-5.06,18.23-7.6,3.35-1.39,6.88-.57,24.25,3.25,25.79,5.67,28.77,7.92,30.55,9.5,5.22,4.63,4.2,7.09,12.62,15.03,4.54,4.28,7,5.61,8.42,9.62,1.28,3.62.29,5.46,1.2,12.62.42,3.28.92,5.23,1.8,9.02,0,0,7,30.03,2.28,38.15Z"/>
    <path class="cls-11" d="m449.22,449.33c-.3,2.12-2.78,3.12-4.47,1.81l-8.06-6.29-8.06-6.29c-1.69-1.32-1.32-3.97.67-4.77l9.48-3.83,9.48-3.83c1.99-.8,4.1.84,3.8,2.97l-1.42,10.12-1.42,10.12Z"/>
    <path class="cls-11" d="m335.31,450.13c-1.83,1.11-4.18-.19-4.22-2.33l-.2-10.22-.2-10.22c-.04-2.14,2.25-3.53,4.13-2.49l8.95,4.94,8.95,4.94c1.88,1.03,1.93,3.71.1,4.82l-8.75,5.28-8.75,5.28Z"/>
    <g>
      <path class="cls-8" d="m400.42,457.44c3.11,5.62-1.58,6.85-7.2,9.96s-10.04,6.93-13.15,1.31c-3.11-5.62-1.08-12.7,4.54-15.81,5.62-3.11,12.7-1.08,15.81,4.54Z"/>
      <rect class="cls-8" x="388.65" y="461.22" width="8.43" height="13.15" rx="4.03" ry="4.03" transform="translate(-177.43 248.85) rotate(-28.97)"/>
    </g>
    <g>
      <path class="cls-8" d="m455.22,522.17c-6.4.6-5.64-4.2-6.24-10.59-.6-6.4-2.32-11.97,4.08-12.57s12.07,4.11,12.66,10.5-4.11,12.07-10.5,12.66Z"/>
      <rect class="cls-8" x="444.55" y="504.51" width="8.43" height="13.15" rx="4.03" ry="4.03" transform="translate(915.96 16.79) rotate(84.67)"/>
    </g>
    <g>
      <path class="cls-8" d="m341.58,519.54c-6.4.6-5.64-4.2-6.24-10.59-.6-6.4-2.32-11.97,4.08-12.57s12.07,4.11,12.66,10.5c.6,6.4-4.11,12.07-10.5,12.66Z"/>
      <rect class="cls-8" x="330.91" y="501.89" width="8.43" height="13.15" rx="4.03" ry="4.03" transform="translate(810.27 127.56) rotate(84.67)"/>
    </g>
    <g>
      <path class="cls-8" d="m371.71,545.87c-1.04-6.34,3.79-5.92,10.13-6.96s11.78-3.15,12.83,3.19c1.04,6.34-3.25,12.32-9.59,13.37-6.34,1.04-12.32-3.25-13.37-9.59Z"/>
      <rect class="cls-8" x="378.1" y="532.09" width="8.43" height="13.15" rx="4.03" ry="4.03" transform="translate(846.94 1008.18) rotate(170.67)"/>
    </g>
    <g>
      <path class="cls-8" d="m422.98,503.94c3.11,5.62-1.58,6.85-7.2,9.96s-10.04,6.93-13.15,1.31-1.08-12.7,4.54-15.81c5.62-3.11,12.7-1.08,15.81,4.54Z"/>
      <rect class="cls-8" x="411.2" y="507.72" width="8.43" height="13.15" rx="4.03" ry="4.03" transform="translate(-197.13 265.59) rotate(-28.97)"/>
    </g>
    <g>
      <path class="cls-8" d="m437.84,558.14c3.11,5.62-1.58,6.85-7.2,9.96-5.62,3.11-10.04,6.93-13.15,1.31-3.11-5.62-1.08-12.7,4.54-15.81,5.62-3.11,12.7-1.08,15.81,4.54Z"/>
      <rect class="cls-8" x="426.06" y="561.92" width="8.43" height="13.15" rx="4.03" ry="4.03" transform="translate(-221.53 279.58) rotate(-28.97)"/>
    </g>
  </g>
  <g>
    <circle class="cls-7" cx="134.69" cy="512.49" r="81"/>
    <circle class="cls-11" cx="137.26" cy="505.59" r="81"/>
    <ellipse class="cls-4" cx="137.55" cy="505.73" rx="75.97" ry="74.04"/>
    <line class="cls-9" x1="114.2" y1="451.79" x2="118.93" y2="455.93"/>
    <path class="cls-11" d="m207.49,534.24c-.42.73-.95,1.35-.95,1.35-1.29,1.4-2.94,1.7-7.85,6.66-6.87,6.92-6.92,9.62-10.4,12.81-1.52,1.39-2.94,2.04-3.89,2.52-9.55,4.92-10.66,6.86-24.67,13.64-7.25,3.51-10.92,5.27-13.01,5.32-5.89.15-8.36-2.82-17.5-5.05-6.03-1.47-8.23-.97-12.86-1.67-11.73-1.76-20.09-8.31-25.81-12.79-6.14-4.81-19.79-15.53-23.8-33.27-.69-3.06-.02-11.84,1.33-29.4.97-12.57,1.93-19.11,5.89-26.29,1.36-2.46,2.57-8.09,7.87-10.3,9.31-3.88,18.62-7.76,27.93-11.63,5.98-2.49,11.96-4.98,17.93-7.47,3.29-1.37,6.77-.56,23.85,3.19,25.37,5.58,28.29,7.79,30.04,9.34,5.14,4.55,4.13,6.97,12.42,14.78,4.47,4.21,6.89,5.52,8.28,9.46,1.26,3.56.29,5.37,1.18,12.42.41,3.22.91,5.14,1.77,8.87,0,0,6.88,29.54,2.24,37.52Z"/>
    <ellipse class="cls-4" cx="96.17" cy="473.96" rx="10.35" ry="8.57"/>
    <ellipse class="cls-4" cx="136.87" cy="519.15" rx="10.35" ry="8.57"/>
    <ellipse class="cls-4" cx="177.76" cy="465.09" rx="8.57" ry="10.35" transform="translate(-276.81 261.92) rotate(-45)"/>
    <ellipse class="cls-4" cx="191.95" cy="519.48" rx="10.35" ry="8.57" transform="translate(-338.58 360.6) rotate(-53.05)"/>
    <ellipse class="cls-4" cx="149.97" cy="555.55" rx="10.35" ry="8.57"/>
    <ellipse class="cls-4" cx="73.11" cy="503.52" rx="10.35" ry="8.57"/>
    <ellipse class="cls-4" cx="96.17" cy="536.63" rx="8.57" ry="10.35" transform="translate(-435.58 416.38) rotate(-67.1)"/>
    <ellipse class="cls-4" cx="137.55" cy="442.03" rx="10.35" ry="8.57"/>
    <path class="cls-11" d="m195.85,448.22c-.29,2.09-2.73,3.07-4.39,1.78l-7.92-6.19-7.92-6.19c-1.66-1.3-1.29-3.9.66-4.69l9.32-3.77,9.32-3.77c1.95-.79,4.03.83,3.74,2.92l-1.4,9.96-1.4,9.96Z"/>
    <path class="cls-11" d="m83.8,449.01c-1.8,1.09-4.11-.18-4.15-2.29l-.2-10.05-.2-10.05c-.04-2.11,2.21-3.47,4.06-2.45l8.8,4.85,8.8,4.85c1.84,1.02,1.9,3.65.09,4.74l-8.61,5.2-8.61,5.2Z"/>
  </g>
  <g>
    <circle class="cls-7" cx="133.66" cy="226.13" r="84.36"/>
    <circle class="cls-11" cx="136.34" cy="218.94" r="84.36"/>
    <ellipse class="cls-4" cx="136.64" cy="219.09" rx="79.12" ry="77.12"/>
    <line class="cls-9" x1="112.32" y1="162.91" x2="117.25" y2="167.22"/>
    <path class="cls-11" d="m209.48,248.78c-.44.76-.99,1.4-.99,1.4-1.34,1.45-3.06,1.77-8.18,6.93-7.15,7.21-7.21,10.02-10.84,13.34-1.58,1.45-3.06,2.12-4.05,2.63-9.95,5.12-11.1,7.14-25.69,14.2-7.56,3.66-11.38,5.49-13.55,5.54-6.14.16-8.71-2.94-18.23-5.26-6.29-1.53-8.57-1.01-13.39-1.74-12.22-1.83-20.93-8.66-26.88-13.33-6.39-5.01-20.62-16.17-24.79-34.65-.72-3.19-.02-12.33,1.39-30.62,1.01-13.1,2.01-19.91,6.13-27.38,1.41-2.56,2.67-8.43,8.2-10.73,9.7-4.04,19.39-8.08,29.09-12.12,6.23-2.59,12.45-5.19,18.68-7.78,3.43-1.43,7.05-.58,24.84,3.33,26.42,5.81,29.47,8.11,31.29,9.73,5.35,4.74,4.3,7.26,12.93,15.39,4.65,4.39,7.18,5.75,8.62,9.85,1.31,3.71.3,5.6,1.23,12.93.43,3.36.94,5.36,1.85,9.24,0,0,7.17,30.76,2.33,39.08Z"/>
    <path class="cls-11" d="m197.36,159.19c-.3,2.17-2.85,3.2-4.58,1.85l-8.25-6.44-8.25-6.44c-1.73-1.35-1.35-4.07.69-4.89l9.71-3.93,9.71-3.93c2.03-.82,4.2.87,3.89,3.04l-1.45,10.37-1.45,10.37Z"/>
    <path class="cls-11" d="m80.66,160.01c-1.88,1.13-4.28-.19-4.32-2.38l-.21-10.47-.21-10.47c-.04-2.19,2.3-3.61,4.23-2.55l9.17,5.06,9.17,5.06c1.92,1.06,1.98,3.8.1,4.94l-8.96,5.41-8.96,5.41Z"/>
    <g>
      <path class="cls-2" d="m168.59,255.96c.1-.41,6.99,4.01,11.94,1.32,5.56-3.03,4.74-12.9,5.49-12.74.79.17,3.77,11.61-2.27,15.54-6.08,3.96-15.27-3.63-15.15-4.11Z"/>
      <path class="cls-2" d="m152.42,266.63c.08-.39,6.78,4.15,11.39,1.68,5.19-2.78,4.08-12.47,4.8-12.29.75.19,3.96,11.48-1.65,15.13-5.65,3.67-14.64-4.05-14.54-4.52Z"/>
    </g>
    <g>
      <path class="cls-2" d="m86.92,221.56c.39-.16.93,8,6.04,10.38,5.74,2.67,13.19-3.86,13.51-3.16.34.73-7.09,9.93-13.84,7.41-6.8-2.54-6.16-14.44-5.7-14.63Z"/>
      <path class="cls-2" d="m68.73,214.9c.37-.17.69,7.91,5.42,10.15,5.32,2.52,12.46-4.13,12.74-3.45.3.72-6.88,10.01-13.15,7.67-6.31-2.36-5.44-14.18-5.01-14.37Z"/>
    </g>
    <g>
      <path class="cls-2" d="m150.33,223.31c-.42.01,1.98-7.81-1.93-11.85-4.41-4.55-13.7-1.11-13.75-1.87-.05-.8,10.17-6.75,15.58-1.98,5.44,4.8.6,15.69.1,15.7Z"/>
      <path class="cls-2" d="m164.94,236.03c-.4.03,2.18-7.64-1.44-11.42-4.07-4.25-13.11-.59-13.13-1.33-.02-.78,10-6.9,15.02-2.47,5.06,4.46.02,15.19-.45,15.22Z"/>
    </g>
    <g>
      <path class="cls-8" d="m184.38,233.9c-5.49,3.62-7.12-1.07-10.74-6.57-3.62-5.49-7.87-9.71-2.38-13.33s12.89-2.11,16.51,3.39,2.11,12.89-3.39,16.51Z"/>
      <rect class="cls-8" x="168.89" y="220.26" width="8.64" height="13.47" rx="4.32" ry="4.32" transform="translate(267.36 -42.57) rotate(56.6)"/>
    </g>
    <g>
      <path class="cls-8" d="m154.7,281.88c-6.25,2.05-6.59-2.91-8.64-9.16-2.05-6.25-5.05-11.43,1.21-13.48,6.25-2.05,12.99,1.35,15.04,7.6s-1.35,12.99-7.6,15.04Z"/>
      <rect class="cls-8" x="141.41" y="265.55" width="8.64" height="13.47" rx="4.32" ry="4.32" transform="translate(358.92 48.85) rotate(71.81)"/>
    </g>
    <g>
      <path class="cls-8" d="m101.16,194.84c3.19,5.76-1.62,7.02-7.38,10.21-5.76,3.19-10.28,7.1-13.47,1.34s-1.1-13.01,4.65-16.2c5.76-3.19,13.01-1.1,16.2,4.65Z"/>
      <rect class="cls-8" x="89.09" y="198.71" width="8.64" height="13.47" rx="4.32" ry="4.32" transform="translate(-87.83 70.96) rotate(-28.97)"/>
    </g>
    <g>
      <path class="cls-8" d="m86.29,245.26c6.13-2.41,6.74,2.52,9.15,8.65s5.69,11.12-.43,13.53-13.04-.61-15.45-6.73c-2.41-6.13.61-13.04,6.73-15.45Z"/>
      <rect class="cls-8" x="91.48" y="247.59" width="8.64" height="13.47" rx="4.32" ry="4.32" transform="translate(-105.86 436.51) rotate(-111.46)"/>
    </g>
    <g>
      <path class="cls-8" d="m122.48,150.17c2.3-6.17,6.38-3.34,12.55-1.04s12.08,3.19,9.78,9.36c-2.3,6.17-9.16,9.3-15.33,7.01-6.17-2.3-9.3-9.16-7.01-15.33Z"/>
      <rect class="cls-8" x="131.26" y="142.42" width="8.64" height="13.47" rx="4.32" ry="4.32" transform="translate(210.55 336.26) rotate(-159.57)"/>
    </g>
    <g>
      <path class="cls-8" d="m198.62,187.31c-5.49,3.62-7.12-1.07-10.74-6.57s-7.87-9.71-2.38-13.33,12.89-2.11,16.51,3.39c3.62,5.49,2.11,12.89-3.39,16.51Z"/>
      <rect class="cls-8" x="183.13" y="173.67" width="8.64" height="13.47" rx="4.32" ry="4.32" transform="translate(234.86 -75.4) rotate(56.6)"/>
    </g>
    <g>
      <path class="cls-8" d="m129.67,190.89c-5.49,3.62-7.12-1.07-10.74-6.57s-7.87-9.71-2.38-13.33c5.49-3.62,12.89-2.11,16.51,3.39s2.11,12.89-3.39,16.51Z"/>
      <rect class="cls-8" x="114.17" y="177.25" width="8.64" height="13.47" rx="4.32" ry="4.32" transform="translate(206.86 -16.22) rotate(56.6)"/>
    </g>
    <g>
      <path class="cls-2" d="m147.98,161.05c.1-.41,7,3.99,11.94,1.29,5.55-3.04,4.71-12.91,5.45-12.76.79.16,3.8,11.6-2.23,15.54-6.07,3.97-15.28-3.59-15.16-4.07Z"/>
      <path class="cls-2" d="m131.84,171.75c.08-.39,6.79,4.13,11.39,1.65,5.18-2.79,4.05-12.48,4.77-12.3.75.19,3.99,11.47-1.61,15.14-5.64,3.69-14.65-4.02-14.55-4.48Z"/>
    </g>
  </g>
  <g>
    <ellipse class="cls-7" cx="388.79" cy="227.86" rx="86.47" ry="85.63"/>
    <ellipse class="cls-11" cx="391.53" cy="220.56" rx="86.47" ry="85.63"/>
    <ellipse class="cls-4" cx="391.84" cy="220.71" rx="81.11" ry="78.28"/>
    <line class="cls-9" x1="366.91" y1="163.68" x2="371.96" y2="168.06"/>
    <path class="cls-11" d="m466.5,250.85c-.45.77-1.01,1.42-1.01,1.42-1.38,1.48-3.14,1.8-8.39,7.04-7.33,7.32-7.39,10.17-11.11,13.54-1.62,1.47-3.14,2.15-4.15,2.67-10.2,5.2-11.38,7.25-26.33,14.42-7.75,3.71-11.66,5.57-13.89,5.63-6.29.16-8.93-2.98-18.68-5.34-6.44-1.56-8.79-1.03-13.73-1.76-12.52-1.86-21.45-8.79-27.55-13.53-6.55-5.09-21.13-16.41-25.41-35.17-.74-3.24-.02-12.52,1.42-31.08,1.03-13.29,2.06-20.21,6.29-27.79,1.45-2.6,2.74-8.55,8.4-10.89,9.94-4.1,19.88-8.2,29.82-12.3,6.38-2.63,12.76-5.27,19.15-7.9,3.51-1.45,7.23-.59,25.46,3.38,27.08,5.9,30.21,8.23,32.07,9.88,5.48,4.81,4.41,7.37,13.25,15.63,4.77,4.45,7.36,5.83,8.84,10,1.34,3.77.31,5.68,1.26,13.13.44,3.41.97,5.44,1.89,9.38,0,0,7.35,31.23,2.39,39.67Z"/>
    <path class="cls-11" d="m454.08,159.91c-.31,2.21-2.92,3.25-4.69,1.88l-8.46-6.54-8.46-6.54c-1.77-1.37-1.38-4.13.7-4.96l9.95-3.98,9.95-3.98c2.09-.83,4.3.88,3.99,3.08l-1.49,10.53-1.49,10.53Z"/>
    <path class="cls-11" d="m334.46,160.75c-1.93,1.15-4.39-.19-4.43-2.42l-.21-10.63-.21-10.63c-.04-2.23,2.36-3.67,4.33-2.59l9.4,5.13,9.4,5.13c1.97,1.08,2.03,3.86.1,5.01l-9.19,5.5-9.19,5.5Z"/>
    <g>
      <path class="cls-10" d="m347.07,241.27s16.23,1.3,21.41-5.42c.39.99,3.68,9.82-1.24,16.22-.76.99-1.94,2.21-3.74,3.27"/>
      <g>
        <path class="cls-4" d="m346.98,246.75c-2.16,3.26-6.71,6.18-9.29,4.87-3.55-1.81-3.67-11.82,1.06-15.12,1.05-.74,3.41-1.9,5.99-1.15.45.13,2.13.64,3.3,2.2,2.13,2.84.32,7.12-1.06,9.2Z"/>
        <path class="cls-4" d="m351.44,252.23c-4.12,4.31-13.92,1.77-14.97-1.92-.88-3.07,4.29-7.01,6.74-8.33,1.13-.61,3.16-.74,5.05-.52s3.65.79,4.24,1.57c1.35,1.81,1.47,6.55-1.06,9.2Z"/>
      </g>
      <g>
        <path class="cls-4" d="m366.6,258.61c-.58,3.85-3.47,8.4-6.36,8.28-3.99-.17-8.34-9.21-5.45-14.17.64-1.11,2.29-3.14,4.95-3.54.46-.07,2.2-.3,3.93.63,3.14,1.7,3.31,6.33,2.94,8.79Z"/>
        <path class="cls-4" d="m372.98,261.73c-1.91,5.62-11.88,7.39-14.4,4.48-2.1-2.42.92-8.14,2.59-10.36,1.53-2.04,3.58-3.33,4.95-3.54.46-.07,2.2-.3,3.93.63,1.99,1.08,4.11,5.33,2.94,8.79Z"/>
      </g>
    </g>
    <g>
      <path class="cls-10" d="m366.48,166.94s15.75,4.07,22.03-1.66c.21,1.04,1.9,10.31-4.06,15.76-.92.84-2.29,1.84-4.26,2.58"/>
      <g>
        <path class="cls-4" d="m365.42,172.31c-2.7,2.84-7.69,4.94-10,3.2-3.18-2.39-1.54-12.27,3.69-14.71,1.17-.54,3.69-1.28,6.1-.11.42.2,1.98,1,2.86,2.74,1.6,3.16-.93,7.06-2.66,8.88Z"/>
        <path class="cls-4" d="m368.86,178.48c-4.81,3.54-14.02-.65-14.41-4.46-.33-3.17,5.45-6.17,8.1-7.05,1.22-.4,3.24-.18,5.07.36s3.46,1.4,3.9,2.27c1.01,2.01.3,6.7-2.66,8.88Z"/>
      </g>
      <g>
        <path class="cls-4" d="m382.67,187.37c-1.25,3.69-4.89,7.68-7.72,7.06-3.9-.85-6.6-10.5-2.89-14.89.83-.98,2.81-2.7,5.5-2.63.46.01,2.22.08,3.76,1.29,2.79,2.21,2.15,6.8,1.35,9.16Z"/>
        <path class="cls-4" d="m388.4,191.54c-2.87,5.21-13,5.24-14.97,1.94-1.64-2.75,2.33-7.86,4.36-9.76,1.87-1.75,4.11-2.67,5.5-2.63.46.01,2.22.08,3.76,1.29,1.77,1.4,3.12,5.96,1.35,9.16Z"/>
      </g>
    </g>
    <g>
      <path class="cls-10" d="m347.07,241.27s16.23,1.3,21.41-5.42c.39.99,3.68,9.82-1.24,16.22-.76.99-1.94,2.21-3.74,3.27"/>
      <g>
        <path class="cls-4" d="m346.98,246.75c-2.16,3.26-6.71,6.18-9.29,4.87-3.55-1.81-3.67-11.82,1.06-15.12,1.05-.74,3.41-1.9,5.99-1.15.45.13,2.13.64,3.3,2.2,2.13,2.84.32,7.12-1.06,9.2Z"/>
        <path class="cls-4" d="m351.44,252.23c-4.12,4.31-13.92,1.77-14.97-1.92-.88-3.07,4.29-7.01,6.74-8.33,1.13-.61,3.16-.74,5.05-.52s3.65.79,4.24,1.57c1.35,1.81,1.47,6.55-1.06,9.2Z"/>
      </g>
      <g>
        <path class="cls-4" d="m366.6,258.61c-.58,3.85-3.47,8.4-6.36,8.28-3.99-.17-8.34-9.21-5.45-14.17.64-1.11,2.29-3.14,4.95-3.54.46-.07,2.2-.3,3.93.63,3.14,1.7,3.31,6.33,2.94,8.79Z"/>
        <path class="cls-4" d="m372.98,261.73c-1.91,5.62-11.88,7.39-14.4,4.48-2.1-2.42.92-8.14,2.59-10.36,1.53-2.04,3.58-3.33,4.95-3.54.46-.07,2.2-.3,3.93.63,1.99,1.08,4.11,5.33,2.94,8.79Z"/>
      </g>
    </g>
    <g>
      <path class="cls-10" d="m430.2,238.9s4.85-15.39-.63-21.87c1.06-.16,10.49-1.4,15.71,4.76.81.95,1.75,2.36,2.4,4.33"/>
      <g>
        <path class="cls-4" d="m435.58,240.2c2.73,2.8,4.62,7.84,2.76,10.04-2.56,3.03-12.45.94-14.66-4.35-.49-1.18-1.12-3.71.18-6.04.22-.4,1.1-1.91,2.9-2.7,3.27-1.43,7.08,1.26,8.83,3.05Z"/>
        <path class="cls-4" d="m441.96,237.09c3.34,4.93-1.32,13.83-5.18,14.04-3.22.17-5.96-5.68-6.72-8.35-.35-1.22-.03-3.21.6-4.99s1.58-3.36,2.48-3.75c2.08-.91,6.77.02,8.83,3.05Z"/>
      </g>
      <g>
        <path class="cls-4" d="m451.57,223.85c3.67,1.41,7.52,5.2,6.76,7.97-1.04,3.81-10.9,6.03-15.15,2.15-.95-.87-2.59-2.91-2.4-5.56.03-.46.18-2.19,1.48-3.66,2.36-2.66,6.96-1.8,9.31-.91Z"/>
        <path class="cls-4" d="m456.06,218.37c5.12,3.08,4.67,13.1,1.25,14.9-2.85,1.5-7.82-2.68-9.64-4.78-1.67-1.93-2.5-4.19-2.4-5.56.03-.46.18-2.19,1.48-3.66,1.5-1.69,6.15-2.8,9.31-.91Z"/>
      </g>
    </g>
  </g>
</svg>